<svg width="88" height="66" viewBox="0 0 88 66" fill="none" xmlns="http://www.w3.org/2000/svg">
<path fill-rule="evenodd" clip-rule="evenodd" d="M8 9V58H80V9H8ZM4 1C1.79086 1 0 2.79086 0 5V62C0 64.2091 1.79086 66 4 66H84C86.2091 66 88 64.2091 88 62V5C88 2.79086 86.2091 1 84 1H4Z" fill="#010043"/>
<path fill-rule="evenodd" clip-rule="evenodd" d="M44.0009 26.3827L17.5758 8.75014H70.4259L44.0009 26.3827ZM46.2211 34.5187C44.8768 35.4156 43.1249 35.4156 41.7807 34.5187L2.15438 8.07742C-1.13695 5.88123 0.417797 0.750137 4.37457 0.750137H83.6272C87.584 0.750137 89.1387 5.88122 85.8474 8.07741L46.2211 34.5187Z" fill="#010043"/>
</svg>
